<svg xmlns="http://www.w3.org/2000/svg" xmlns:xlink="http://www.w3.org/1999/xlink" version="1.1" width="173.81024pt" height="23.01596pt" viewBox="0 0 173.81024 23.01596">
<g id="layer_1" data-name="Ebene 1">
<path transform="matrix(0,1,-1,0,-524.428,-257.93763)" d="M275.97706-535.83059H270.43898V-532.98489H275.97706V-529.31887H262.36573V-532.98489H267.5923V-535.83059H262.36573V-539.4966H275.97706V-535.83059Z" fill="#ffc221"/>
<path transform="matrix(0,1,-1,0,-524.428,-257.93763)" d="M265.13526-548.01809V-547.98L270.47804-546.5171V-549.2085L265.13526-548.01809ZM275.97706-550.6118 273.0913-549.8911V-545.89309L275.97706-545.0161V-541.50637L262.36573-546.0298V-550.0669L275.97706-554.395V-550.6118Z" fill="#ffc221"/>
<path transform="matrix(0,1,-1,0,-524.428,-257.93763)" d="M276.21144-559.7583C276.21144-558.1196 275.85987-556.813 275.68409-556.13137L272.70069-556.3452C272.9546-556.79348 273.52003-558.1196 273.52003-559.4263 273.52003-560.81106 272.91554-561.29837 272.05714-561.29837 271.16065-561.29837 270.90675-560.69387 270.49757-559.6411L270.18605-558.8413C269.3081-556.59817 268.09913-555.9165 266.16847-555.9165 263.59425-555.9165 262.13233-557.9829 262.13233-560.8696 262.13233-561.90286 262.22999-563.18997 262.67823-564.3013L265.3501-564.145C265.01808-563.50149 264.66749-562.39016 264.66749-561.3374 264.66749-560.2446 265.11573-559.5825 265.9546-559.5825 266.65577-559.5825 266.96827-559.9331 267.51417-561.1421L268.25538-562.7798C268.8208-564.0083 269.67823-565.08059 271.70655-565.08059 274.68995-565.08059 276.21144-562.93606 276.21144-559.7583Z" fill="#ffc221"/>
<path transform="matrix(0,1,-1,0,-524.428,-257.93763)" d="M275.97706-567.772H262.36573V-571.438H273.2085V-575.92239H275.97706V-567.772Z" fill="#ffc221"/>
<path transform="matrix(0,1,-1,0,-524.428,-257.93763)" d="M275.97706-578.146H262.36573V-586.4917H265.05714V-581.7339H267.6704V-586.2583H270.36085V-581.7339H273.28565V-586.7446H275.97706V-578.146Z" fill="#ffc221"/>
<path transform="matrix(0,1,-1,0,-524.428,-257.93763)" d="M264.979-594.64309V-593.6284H268.04054V-594.70169C268.04054-595.48098 267.45558-596.20266 266.5786-596.20266 265.6421-596.20266 264.979-595.71536 264.979-594.64309ZM275.97706-596.5337 272.11573-595.52C270.81007-595.16848 270.6538-594.56497 270.6538-593.979V-593.78469H275.97706V-590.11868H262.36573V-595.5591C262.36573-598.3091 263.5171-599.86868 266.03175-599.86868 268.04054-599.86868 268.85987-598.4458 269.15187-597.2554H269.21046C269.46437-598.03567 269.83448-598.5425 271.72608-599.0884L275.97706-600.3169V-596.5337Z" fill="#ffc221"/>
<path transform="matrix(0,1,-1,0,-524.428,-257.93763)" d="M276.21144-606.5962C276.21144-604.9575 275.85987-603.65188 275.68409-602.96926L272.70069-603.1841C272.9546-603.6323 273.52003-604.9575 273.52003-606.26419 273.52003-607.6489 272.91554-608.1372 272.05714-608.1372 271.16065-608.1372 270.90675-607.53176 270.49757-606.479L270.18605-605.6802C269.3081-603.437 268.09913-602.7544 266.16847-602.7544 263.59425-602.7544 262.13233-604.8218 262.13233-607.7075 262.13233-608.7407 262.22999-610.02786 262.67823-611.13919L265.3501-610.9829C265.01808-610.34036 264.66749-609.229 264.66749-608.1763 264.66749-607.0835 265.11573-606.4204 265.9546-606.4204 266.65577-606.4204 266.96827-606.772 267.51417-607.98098L268.25538-609.61868C268.8208-610.84719 269.67823-611.91946 271.70655-611.91946 274.68995-611.91946 276.21144-609.7739 276.21144-606.5962Z" fill="#95a1aa"/>
<path transform="matrix(0,1,-1,0,-524.428,-257.93763)" d="M265.13526-619.97317H275.97706V-616.3071H265.13526V-613.3823H262.36573V-622.89797H265.13526V-619.97317Z" fill="#95a1aa"/>
<path transform="matrix(0,1,-1,0,-524.428,-257.93763)" d="M275.97706-625.53079H262.36573V-629.1968H275.97706V-625.53079Z" fill="#95a1aa"/>
<path transform="matrix(0,1,-1,0,-524.428,-257.93763)" d="M265.05714-636.7427H267.82569V-640.99368H270.5171V-636.7427H275.97706V-633.1548H262.36573V-641.188H265.05714V-636.7427Z" fill="#95a1aa"/>
<path transform="matrix(0,1,-1,0,-524.428,-257.93763)" d="M265.13526-649.9634H275.97706V-646.29739H265.13526V-643.37258H262.36573V-652.8882H265.13526V-649.9634Z" fill="#95a1aa"/>
<path transform="matrix(0,1,-1,0,-524.428,-257.93763)" d="M276.21144-660.60989C276.21144-657.74368 274.8462-655.42337 270.86769-655.42337H262.36573V-659.0112H270.98487C272.48683-659.0112 273.52003-659.3423 273.52003-660.60989 273.52003-661.87747 272.48683-662.2095 270.98487-662.2095H262.36573V-665.79739H270.86769C274.8462-665.79739 276.21144-663.47708 276.21144-660.60989Z" fill="#95a1aa"/>
<path transform="matrix(0,1,-1,0,-524.428,-257.93763)" d="M275.97706-676.229 266.53956-672.7388V-672.66067H275.97706V-669.4634H262.36573V-673.71438L271.7456-677.2827V-677.3218H262.36573V-680.51907H275.97706V-676.229Z" fill="#95a1aa"/>
<path transform="matrix(0,1,-1,0,-524.428,-257.93763)" d="M276.21144-690.34719C276.21144-686.1548 273.79347-682.9956 269.2495-682.9956 265.13526-682.9956 262.13233-685.4136 262.13233-690.52297 262.13233-692.29739 262.4829-693.4868 262.67823-694.05227L265.5835-693.85696C265.13526-693.15579 264.82276-692.1216 264.82276-690.87356 264.82276-688.0464 266.6167-686.7788 269.26905-686.7788 271.9214-686.7788 273.4419-688.1245 273.4419-689.84036 273.4419-690.3081 273.3833-690.7378 273.2085-691.0298H270.63429V-689.17727H268.09913V-694.4614H275.45069C275.84034-693.6821 276.21144-692.0825 276.21144-690.34719Z" fill="#95a1aa"/>
</g>
</svg>
